<svg xmlns="http://www.w3.org/2000/svg" viewBox="-5 -2 50 35">
<defs><style><!--.cls-3{fill:#2e2624}-->.cls-5{fill:#f39605}.cls-6{fill:#f8b300}</style></defs>
<g id="圖層_2" data-name="圖層 2"><g id="圖層_1-2" data-name="圖層 1">
<path fill="none" d="M0 0h142v30H0z"/>
<path d="M32 24.62a1.25 1.25 0 0 0-1.11.59l-.22.28v-.87h-1.42V30h1.44v-2.67A1.21 1.21 0 0 1 32 26h1.09a1.46 1.46 0 0 1 .66-1.34zm-8.79 0h-1.66l-1.76 1.6v-3.16h-1.44V30h1.44v-2.15L21.71 30h1.66l-2.72-3.05 2.56-2.33zm3.98 0h-.86a1.72 1.72 0 0 0-1.14.52v-2.08h-1.44V30h1.45v-.53a1.65 1.65 0 0 0 1.14.53h.86c.86 0 1.29-.55 1.29-1.64v-2.15q0-1.57-1.3-1.59zM27 27.27v.59c0 .6-.19.9-.56.9h-.74q-.48 0-.54-.7v-1.54c0-.44.22-.66.54-.66h.74c.37 0 .56.28.56.84zm10.31-2.65h-2a1.43 1.43 0 0 0-1.63 1.61v2.15A1.43 1.43 0 0 0 35.31 30h2A1.44 1.44 0 0 0 39 28.38v-2.15a1.44 1.44 0 0 0-1.69-1.61zm.2 2.69v.57c0 .58-.26.87-.78.87h-.83c-.5 0-.76-.29-.76-.87v-1.15c0-.57.25-.86.76-.86h.84c.51 0 .77.29.77.86z" fill="#009fd6"/>
<!--
<path class="cls-3" d="M109.31 16.81h2.08a1.54 1.54 0 0 0 .21.89.85.85 0 0 0 .52.2.69.69 0 0 0 .51-.22 1.37 1.37 0 0 0 .23-.87h3.45a1.51 1.51 0 0 0 .21.89.83.83 0 0 0 .51.2.68.68 0 0 0 .51-.22 1.34 1.34 0 0 0 .22-.87h2.35a.52.52 0 0 0 .42-.19.66.66 0 0 0 .16-.44.63.63 0 0 0-.16-.44.55.55 0 0 0-.42-.17h-2.35a.89.89 0 0 0-.22-.7.82.82 0 0 0-.51-.21.68.68 0 0 0-.52.21 1 1 0 0 0-.19.7h-3.45a.9.9 0 0 0-.23-.7.82.82 0 0 0-.51-.21.69.69 0 0 0-.53.21 1 1 0 0 0-.19.7h-2.08a.56.56 0 0 0-.44.17.66.66 0 0 0-.16.44.6.6 0 0 0 .16.44.53.53 0 0 0 .42.19z"/>
<path class="cls-3" d="M122.38 13.12a1.4 1.4 0 0 0-.68-.19h-6.43a1.4 1.4 0 0 0-.25-1 .69.69 0 0 0-.53-.22.77.77 0 0 0-.56.22 1.82 1.82 0 0 0-.19 1h-5.82a1.26 1.26 0 0 0-.95.41 1.33 1.33 0 0 0-.38 1v2.36a.91.91 0 0 0 .21.63.68.68 0 0 0 .54.24.74.74 0 0 0 .54-.22.9.9 0 0 0 .23-.65v-1.78a.49.49 0 0 1 .14-.36.42.42 0 0 1 .35-.15h12.46a.37.37 0 0 1 .38.3 3.53 3.53 0 0 1-.26 1.65.8.8 0 0 0 .45 1.11.91.91 0 0 0 .58 0 .89.89 0 0 0 .42-.54 4.83 4.83 0 0 0 .16-3.19 1.29 1.29 0 0 0-.41-.62zm-.21 12.2a.64.64 0 0 0-.53.21 2.31 2.31 0 0 0-.24 1.31c0 .46-.41.7-1.23.73h-.12a.62.62 0 0 0 .19-.22.9.9 0 0 0 .09-.52q-.18-.55-1.6-1a.63.63 0 0 0-.53 0 .69.69 0 0 0-.32.39.9.9 0 0 0 0 .52.73.73 0 0 0 .44.35 4.69 4.69 0 0 1 1 .54h-2.14a.85.85 0 0 1-.59-.26.93.93 0 0 1-.25-.63v-1.2h3.26a1.08 1.08 0 0 0 .74-.35 1.24 1.24 0 0 0 .35-.82v-5.31a1.06 1.06 0 0 0-.28-.68 1.17 1.17 0 0 0-.81-.29h-10.18a.83.83 0 0 0-.67.29 1 1 0 0 0-.26.68v5.24a1.2 1.2 0 0 0 .28.83.87.87 0 0 0 .65.34h2a1.77 1.77 0 0 1-.88 1.48 8.93 8.93 0 0 1-3.59.66.8.8 0 0 0-1 .74 1 1 0 0 0 .16.61.89.89 0 0 0 .61.34q4.31-.28 5.6-1.95a1.4 1.4 0 0 1 .2-.33 4.46 4.46 0 0 0 .38-1.56h1.93v1.72a1.84 1.84 0 0 0 .79 1.54 2.55 2.55 0 0 0 1 .37q4.26.17 5.12-.2a1.72 1.72 0 0 0 1-1.52c0-.22 0-.61.09-1.17a1 1 0 0 0-.18-.65 1.06 1.06 0 0 0-.48-.23zM110 19.9a.55.55 0 0 1 .12-.44.49.49 0 0 1 .4-.13h8.15a.54.54 0 0 1 .42.16.65.65 0 0 1 .1.41v.26H110zm0 1.5h9.19v.76H110zm.52 2.83a.52.52 0 0 1-.4-.15.56.56 0 0 1-.12-.41v-.27h9.19v.28a.75.75 0 0 1-.12.41.63.63 0 0 1-.41.15zm22.54-2.09a.71.71 0 0 0-.42-.39.7.7 0 0 0-.56 0 .89.89 0 0 0-.37.46q-1.52 4.3-5.1 5.33c-1.19.29-1.78.6-1.78.92a1 1 0 0 0 0 .31.83.83 0 0 0 .32.52c.25.2 1 .07 2.29-.39a9.67 9.67 0 0 0 5.61-6.16.72.72 0 0 0 .01-.6z"/>
<path class="cls-3" d="M125.38 19.22h3.28v4.24a.66.66 0 0 1-.16.5 1.6 1.6 0 0 1-.89 0 .69.69 0 0 0-1 .5 1 1 0 0 0 .05.59c.13.27.56.45 1.26.54a2.29 2.29 0 0 0 1.38-.19 1.81 1.81 0 0 0 .77-1.55v-4.63h2.49a.58.58 0 0 0 .49-.22.89.89 0 0 0 .19-.52.76.76 0 0 0-.19-.54.65.65 0 0 0-.49-.18h-2.49v-2.32h2a.59.59 0 0 0 .49-.22.93.93 0 0 0 .19-.52.75.75 0 0 0-.19-.53.65.65 0 0 0-.49-.18h-2V12.7a.92.92 0 0 0-.23-.65.8.8 0 0 0-.5-.2.69.69 0 0 0-.51.22.93.93 0 0 0-.21.63v5.06h-1.18V14a.69.69 0 0 0-.7-.74.67.67 0 0 0-.51.21.74.74 0 0 0-.17.54v3.72h-.72a.64.64 0 0 0-.51.2.93.93 0 0 0-.19.52.77.77 0 0 0 .19.54.71.71 0 0 0 .55.23zM141 28.29a11 11 0 0 0-2.12-1.22.74.74 0 0 0-.58 0 .64.64 0 0 0-.37.41.73.73 0 0 0 0 .56.84.84 0 0 0 .46.43 9.1 9.1 0 0 1 1.82 1.07 1 1 0 0 0 .58.17.57.57 0 0 0 .46-.31.85.85 0 0 0 .1-.58.84.84 0 0 0-.35-.53z"/>
<path class="cls-3" d="M125.37 24.14a.76.76 0 0 0 .52-.24 7.28 7.28 0 0 0 1.7-2.91.79.79 0 0 0 0-.61.76.76 0 0 0-.39-.35.74.74 0 0 0-.51 0 .71.71 0 0 0-.37.47 6.73 6.73 0 0 1-1.39 2.35.93.93 0 0 0-.26.56.89.89 0 0 0 .19.5.88.88 0 0 0 .51.23zM133.59 14h2.69c-.17.46-.35.93-.54 1.43h-1.28a.94.94 0 0 0-.72.32 1 1 0 0 0-.28.74v8.87a1.34 1.34 0 0 0 .3.89.82.82 0 0 0 .7.35h5.17a1.12 1.12 0 0 0 .81-.37 1.24 1.24 0 0 0 .36-.86v-8.85a1 1 0 0 0-.32-.74 1.09 1.09 0 0 0-.85-.32h-2.33c.15-.48.31-1 .49-1.43h2.87a.6.6 0 0 0 .49-.22 1 1 0 0 0 .19-.52.75.75 0 0 0-.19-.53.65.65 0 0 0-.49-.19h-7.07a.63.63 0 0 0-.51.2.94.94 0 0 0-.19.52.77.77 0 0 0 .19.54.71.71 0 0 0 .51.17zm5.69 10.52a.67.67 0 0 1-.13.44.85.85 0 0 1-.44.17h-3.15a.61.61 0 0 1-.43-.15.81.81 0 0 1-.15-.46v-1.08h4.3zm0-2.57H135v-1.7h4.3zm-.56-5.05a.54.54 0 0 1 .44.19.6.6 0 0 1 .13.42v1.26H135v-1.24a.67.67 0 0 1 .15-.48.54.54 0 0 1 .43-.13zm-3.33 10.04a.93.93 0 0 0-.58.19 7 7 0 0 1-2.28 1.07.92.92 0 0 0-.53.31 1.11 1.11 0 0 0-.1.56.71.71 0 0 0 .3.48.68.68 0 0 0 .58.12 6.23 6.23 0 0 0 2.88-1.35 1 1 0 0 0 .35-.56.86.86 0 0 0-.16-.54.65.65 0 0 0-.46-.28zm-31.66.69A16.3 16.3 0 0 1 99 22.85a14.11 14.11 0 0 1-1.92-4.91H103a.84.84 0 0 0 .63-.29 1 1 0 0 0 .24-.68 1 1 0 0 0-.24-.69.86.86 0 0 0-.63-.28h-6.15v-2.91a1.22 1.22 0 0 0-.27-.83A1 1 0 0 0 96 12a.89.89 0 0 0-.65.29 1.24 1.24 0 0 0-.26.81v2.93H89a.86.86 0 0 0-.65.27 1 1 0 0 0-.24.68 1 1 0 0 0 .24.7.84.84 0 0 0 .65.28h5.87c-.83 4.44-3 7.65-6.5 9.52-.24 0-.47.23-.63.69a1.24 1.24 0 0 0 .09.72.9.9 0 0 0 .53.49c.34.12 1-.16 2.14-.89a14.93 14.93 0 0 0 5.61-8 18.62 18.62 0 0 0 6.58 8.87 1 1 0 0 0 .79.24 1 1 0 0 0 .6-.45 1.2 1.2 0 0 0 .18-.59v-.2a1.17 1.17 0 0 0-.53-.73zm-41.84-.2h-.05a1.12 1.12 0 0 1-.88-.35 1 1 0 0 1-.26-.68V13.81a1.53 1.53 0 0 0-.56-1.12 1.44 1.44 0 0 0-1.14-.42h-4.59a.44.44 0 0 0-.24.12.46.46 0 0 0-.12.31v7.52c0 2.19-.11 4.78-.44 5.41a1.37 1.37 0 0 1-.5.65 3.45 3.45 0 0 1-.73.26c-.32.09-.49.12-.94.23.14-.36.24-.64.35-1a1.14 1.14 0 0 0-.13-1 1.24 1.24 0 0 0-.6-.45l-.63-.24a20 20 0 0 1-1.23 3.12 3.18 3.18 0 0 0-.56.07q-2.61.37-4.63.53l.36 1.89q1.79-.12 7.46-1a11.91 11.91 0 0 0 2.05-.54 2.54 2.54 0 0 0 1.37-1.19c.77-1.3.8-3.07.81-6.06v-6.46a.22.22 0 0 1 .25-.25h2.09c.19 0 .29.11.3.31v12.26a2.82 2.82 0 0 0 .56 1.81 1.78 1.78 0 0 0 1.66.77h.68c1.05 0 1.92-1.9 1.88-1.9s-1.48-.03-1.59-.01z"/>
<path class="cls-3" d="M45.3 18.84h7.63v-.74a1.07 1.07 0 0 0-.36-.77 1.1 1.1 0 0 0-.75-.31h-7.68v.6a1.15 1.15 0 0 0 .35.87 1.26 1.26 0 0 0 .81.35zm-.22-2.38h7a.73.73 0 0 0 .83-.83v-2.11a1.06 1.06 0 0 0-.44-.79 1.09 1.09 0 0 0-.7-.26h-.54v2c0 .19-.09.28-.29.28h-1.47v-1.84a1 1 0 0 0-.45-.75 1.84 1.84 0 0 0-1-.26h-.35v2.88h-1.46c-.17 0-.26-.09-.27-.28v-1a1.07 1.07 0 0 0-.44-.79 1.08 1.08 0 0 0-.7-.26h-.54v3.17a.72.72 0 0 0 .82.84zm1 8.43a1.73 1.73 0 0 0-1.31.14 21.65 21.65 0 0 1 1 2.38l1.74-.54c-.1-.29-.19-.54-.47-1.16a1.53 1.53 0 0 0-.96-.82zm6.6-2.01v-2.1a1.2 1.2 0 0 0-1.16-1.11h-6.75a.44.44 0 0 0-.43.42v3.45a.45.45 0 0 0 .45.42h6.73a1.24 1.24 0 0 0 1.16-1.08zm-1.81-.72a.21.21 0 0 1-.22.2h-4.28a.2.2 0 0 1-.22-.22v-.66c0-.16.1-.21.24-.21h4.25a.21.21 0 0 1 .23.21zm29.72-7.02c.13-.34.26-.62.37-.86a1.2 1.2 0 0 0 .91-.36 1.83 1.83 0 0 0 .41-1.26h-3.46a1.35 1.35 0 0 0-.39-1.09 1.29 1.29 0 0 0-.77-.3h-.76v1.39h-2.08a1.28 1.28 0 0 0-1 .45 1.69 1.69 0 0 0-.27 1.16h1.19c.19.45.37.88.53 1.29a2 2 0 0 0-1.38.57 2 2 0 0 0-.58 1H77v.68h-1.47a2.09 2.09 0 0 0-1.8 1.61H77v1.28h.34a3.56 3.56 0 0 0 1.07-.29.63.63 0 0 0 .39-.55v-.39H80a2 2 0 0 0 2-1.61h-3.18v-.68h1.55a2.33 2.33 0 0 0 1.25-.43 2.16 2.16 0 0 0 .74-1.18h-2a2.27 2.27 0 0 1 .23-.43zm-1.43-.77c-.19.44-.38.85-.58 1.24H77c-.15-.44-.31-.88-.48-1.33h2.68a.24.24 0 0 0-.04.09zM68 16.62a1.21 1.21 0 0 0-1.15 1.21v2a1.21 1.21 0 0 0 1.1 1h4A1.19 1.19 0 0 0 73 19.71v-1.93a1.19 1.19 0 0 0-1.12-1.16zm3.45 2.45a.2.2 0 0 1-.21.23h-2.61c-.08 0-.22-.06-.22-.18v-.77c0-.13.15-.19.24-.19h2.55a.2.2 0 0 1 .21.19z"/>
<path class="cls-3" d="M66.42 19.43a13.68 13.68 0 0 0 .36-3v-.27h4.7a1.64 1.64 0 0 0 1.61-1.56V13A1.14 1.14 0 0 0 72 11.86h-5.86A1.15 1.15 0 0 0 65 13v2.84A9.11 9.11 0 0 1 63.56 21a4.47 4.47 0 0 0 2-.11 2.08 2.08 0 0 0 .86-1.46zm.35-5.65c0-.17.09-.25.27-.27h4c.17 0 .25.09.27.27v.55c0 .16-.09.25-.27.27h-4.27zm8.93 11.04h3.7a2.5 2.5 0 0 0 1.26-.45 2.17 2.17 0 0 0 .69-1h-5.94a2.89 2.89 0 0 0-.18-.71h.56c1.57-.07 2.36-.17 3.43-.28a1.89 1.89 0 0 0 1.16-.54 2.16 2.16 0 0 0 .62-1.18c-3.42.58-14.79.65-15 .65a1.87 1.87 0 0 0 1.68 1.45c.24.06 2.92.05 5.63 0a2.38 2.38 0 0 1 .21.63h-6.24a1.93 1.93 0 0 0-1.2.48 2.08 2.08 0 0 0-.66.95h8.46a5.06 5.06 0 0 1 .07.74h-7.43a1.23 1.23 0 0 0-1.13.48 6.63 6.63 0 0 0-.81 1.09h9.35c-.05.28-.11.79-.55.87a7.9 7.9 0 0 1-1.5.09h-3.07a9.06 9.06 0 0 0 .85.83 2.48 2.48 0 0 0 1.47.78h2.8c1.25 0 1.6-1.45 1.67-2.52h4.57a2.21 2.21 0 0 0 1.34-.48 2.07 2.07 0 0 0 .69-1.09h-6.49c.01-.16-.01-.66-.01-.79z"/>
-->
<path d="M13.58 27.86a1.73 1.73 0 0 0 2.19-1.14l2.38-7.54-3-2L9 18.81v7.61zM1.34 22.72a1.74 1.74 0 0 0 1.22 1.66l4.52 1.42v-6.88a2.47 2.47 0 0 1-1.65-1.74l-1.09-4.23-2.92 9.25a1.72 1.72 0 0 0-.08.52z" fill="#ed7100"/>
<path class="cls-5" d="M3.18 5.36a1.84 1.84 0 0 0 .06.44L6.13 17a1.73 1.73 0 0 0 .94 1.13V6.7a2.67 2.67 0 0 1 2.71-2.42 2.67 2.67 0 0 1 2.7 2.36v3.67l5.35-8.05-.01-.26A1.75 1.75 0 0 0 16.13.73a1.89 1.89 0 0 0-.44.06L4.49 3.67a1.75 1.75 0 0 0-1.31 1.69z"/>
<path class="cls-5" d="M9 6.91v11.15l1.46-.38V6.91H9zm5.37 9.76L13 15.76l-1.96 1.77 3.33-.86z"/>
<path class="cls-6" d="M31.07 10.91a1.75 1.75 0 0 0 .29-1 1.73 1.73 0 0 0-.78-1.45L21 2.1a1.74 1.74 0 0 0-2.42.49l-6 9v2.07l2-1.7 3.16-2.76a2.49 2.49 0 0 1 3.46 3.58l-1.7 1.55-.86.78.89.76 5.23 4.45z"/>
<path class="cls-6" d="M21.05 20.23l-2.25-1.91-3.39-2.88L18 13.09l1.78-1.62-.46-.49-.47-.5-2.36 2.13-2.93 2.65 7.49 4.97z"/>
<path d="M31 7.89l-9.63-6.4A2.47 2.47 0 0 0 20 1.08a2.45 2.45 0 0 0-1.54.55A2.47 2.47 0 0 0 16.13 0a2.55 2.55 0 0 0-.62.08L4.31 3a2.46 2.46 0 0 0-1.77 3L4 11.62.72 22a2.43 2.43 0 0 0-.12.75 2.47 2.47 0 0 0 1.73 2.35l11 3.48a2.48 2.48 0 0 0 .74.11 2.47 2.47 0 0 0 2.35-1.73l2.32-7.34 3.07 2a2.47 2.47 0 0 0 3.43-.69l6.4-9.63A2.47 2.47 0 0 0 31 7.89zm-11.42 8l-.89-.76.86-.78 1.7-1.55a2.49 2.49 0 0 0-3.46-3.58L14.52 12l-2 1.7v-2.07l6-9A1.74 1.74 0 0 1 21 2.1l9.63 6.4a1.73 1.73 0 0 1 .74 1.5 1.75 1.75 0 0 1-.29 1l-6.28 9.36zM4.49 3.67L15.69.78a1.89 1.89 0 0 1 .44-.06A1.75 1.75 0 0 1 17.82 2l.06.23-5.35 8.05V6.64a2.67 2.67 0 0 0-2.7-2.36A2.67 2.67 0 0 0 7.08 6.7v11.43A1.73 1.73 0 0 1 6.13 17L3.24 5.8a1.84 1.84 0 0 1-.06-.44 1.75 1.75 0 0 1 1.31-1.69zM13 15.76l1.37.91-3.37.86zm-2.55 1.92L9 18.06V6.91h1.46zm-5-.5a2.47 2.47 0 0 0 1.65 1.74v6.89l-4.55-1.43a1.74 1.74 0 0 1-1.22-1.66 1.72 1.72 0 0 1 .08-.52l2.92-9.25zM9 18.81l6.19-1.6 3 2-2.38 7.54a1.73 1.73 0 0 1-2.19 1.14L9 26.41zm4.56-3.55l2.93-2.64 2.36-2.13.47.5.46.49L18 13.09l-2.59 2.35 3.4 2.88L21 20.23z" fill="#fff"/>
</g></g></svg>