<?xml version="1.0" ?><svg enable-background="new 0 0 512 512" id="Layer_1" version="1.1" viewBox="0 0 512 512" xml:space="preserve" xmlns="http://www.w3.org/2000/svg" xmlns:xlink="http://www.w3.org/1999/xlink"><g><g><linearGradient gradientUnits="userSpaceOnUse" id="SVGID_1_" x1="-0.0000027" x2="512" y1="256" y2="256"><stop offset="0" style="stop-color:#F67950"/><stop offset="1" style="stop-color:#F15A29"/></linearGradient><circle cx="256" cy="256" fill="url(#SVGID_1_)" r="256"/><linearGradient gradientUnits="userSpaceOnUse" id="SVGID_2_" x1="42.6666641" x2="469.3333435" y1="256.0005188" y2="256.0005188"><stop offset="0" style="stop-color:#F15A29"/><stop offset="1" style="stop-color:#F67950"/></linearGradient><path d="M256,469.3338623c-117.6314697,0-213.3333435-95.7018738-213.3333435-213.3333435    S138.3685303,42.6671982,256,42.6671982c117.636261,0,213.3333435,95.7018661,213.3333435,213.333313    S373.636261,469.3338623,256,469.3338623z" fill="url(#SVGID_2_)"/></g><g><polygon opacity="0.3" points="197.6404724,381.8117371 330.3594666,381.8117371 264,277.3274536   "/><polygon opacity="0.3" points="144,146.1877289 144,334.1279907 216.0779724,334.1279907 263.9995117,258.6757202     311.9210815,334.1279907 384,334.1279907 384,146.1877289   "/></g><g><polygon fill="#FFFFFF" points="189.6404724,373.8117371 322.3594666,373.8117371 256,269.3274536   "/><polygon fill="#FFFFFF" points="136,138.1877289 136,326.1279907 208.0779724,326.1279907 255.999527,250.6757355     303.9210815,326.1279907 376,326.1279907 376,138.1877289   "/></g></g></svg>